<svg width="224" height="212" viewBox="0 0 224 212" fill="none" xmlns="http://www.w3.org/2000/svg">
<rect x="15" y="3" width="206" height="206" rx="56" fill="#F7F1E3" stroke="#2C2C54" stroke-width="6"/>
<path d="M28.3706 84.4228L25.2083 82.9228L24.8706 83.6348L24.8706 84.4228L28.3706 84.4228ZM99.5553 28.3747C100.357 26.6158 99.5813 24.54 97.8224 23.7381L69.1603 10.6716C67.4015 9.86977 65.3257 10.6456 64.5238 12.4044C63.722 14.1633 64.4978 16.2391 66.2567 17.0409L91.7341 28.6557L80.1194 54.1331C79.3176 55.8919 80.0934 57.9678 81.8522 58.7696C83.6111 59.5714 85.6869 58.7956 86.4887 57.0367L99.5553 28.3747ZM46.8706 45.4228L45.6453 42.1443L44.3164 42.641L43.7083 43.9228L46.8706 45.4228ZM24.8706 84.4228L24.8706 140.923L31.8706 140.923L31.8706 84.4228L24.8706 84.4228ZM95.1453 23.6443L45.6453 42.1443L48.0959 48.7013L97.5959 30.2013L95.1453 23.6443ZM43.7083 43.9228L25.2083 82.9228L31.5329 85.9229L50.0329 46.9229L43.7083 43.9228Z" fill="#2C2C54"/>
<path d="M84.5495 131.122L81.4378 129.519L81.0495 130.273L81.0495 131.122L84.5495 131.122ZM121.111 97.0036C121.563 95.124 120.405 93.2344 118.525 92.7831L87.8962 85.4277C86.0166 84.9764 84.1271 86.1341 83.6757 88.0137C83.2243 89.8933 84.3821 91.7828 86.2617 92.2342L113.488 98.7723L106.95 125.998C106.498 127.878 107.656 129.767 109.536 130.219C111.415 130.67 113.305 129.512 113.756 127.633L121.111 97.0036ZM95.5476 109.764L93.7191 106.78L92.8842 107.292L92.436 108.162L95.5476 109.764ZM81.0495 131.122L81.0495 159L88.0495 159L88.0495 131.122L81.0495 131.122ZM115.88 93.202L93.7191 106.78L97.3762 112.749L119.537 99.1707L115.88 93.202ZM92.436 108.162L81.4378 129.519L87.6611 132.724L98.6593 111.367L92.436 108.162Z" fill="#2C2C54"/>
<path d="M157.511 86.5464L160.963 87.1219L161.103 86.2852L160.844 85.4775L157.511 86.5464ZM133.115 130.2C133.259 132.128 134.939 133.574 136.867 133.43L168.279 131.079C170.206 130.935 171.652 129.256 171.508 127.328C171.364 125.4 169.684 123.955 167.757 124.099L139.835 126.188L137.746 98.266C137.601 96.3384 135.922 94.8927 133.994 95.0369C132.067 95.1811 130.621 96.8606 130.765 98.7883L133.115 130.2ZM153.56 110.242L156.213 112.525L156.852 111.783L157.013 110.818L153.56 110.242ZM160.844 85.4775L152.33 58.9311L145.664 61.0689L154.178 87.6153L160.844 85.4775ZM139.258 132.223L156.213 112.525L150.908 107.959L133.953 127.656L139.258 132.223ZM157.013 110.818L160.963 87.1219L154.058 85.9709L150.108 109.667L157.013 110.818Z" fill="#2C2C54"/>
<path d="M202.169 120.024L205.589 120.767L205.756 119.997L205.577 119.23L202.169 120.024ZM145.569 190.771C145.187 192.666 146.414 194.512 148.309 194.893L179.189 201.111C181.084 201.492 182.93 200.265 183.311 198.37C183.693 196.475 182.466 194.63 180.571 194.248L153.122 188.722L158.649 161.273C159.03 159.378 157.803 157.532 155.908 157.151C154.013 156.769 152.168 157.996 151.786 159.891L145.569 190.771ZM193.007 162.206L194.944 165.121L196.126 164.336L196.427 162.949L193.007 162.206ZM205.577 119.23L192.749 64.2053L185.932 65.7947L198.76 120.819L205.577 119.23ZM150.938 194.377L194.944 165.121L191.069 159.292L147.062 188.547L150.938 194.377ZM196.427 162.949L205.589 120.767L198.748 119.282L189.587 161.463L196.427 162.949Z" fill="#2C2C54"/>
</svg>
